G04 EAGLE Gerber RS-274X export*
G75*
%MOMM*%
%FSLAX34Y34*%
%LPD*%
%INTop Copper*%
%IPPOS*%
%AMOC8*
5,1,8,0,0,1.08239X$1,22.5*%
G01*
%ADD10C,1.524000*%
%ADD11P,1.429621X8X22.500000*%
%ADD12P,2.749271X8X22.500000*%
%ADD13C,1.320800*%
%ADD14P,1.429621X8X112.500000*%
%ADD15P,1.924489X8X292.500000*%
%ADD16P,1.429621X8X202.500000*%
%ADD17P,1.649562X8X292.500000*%
%ADD18P,1.429621X8X292.500000*%
%ADD19P,1.539592X8X292.500000*%
%ADD20P,1.539592X8X112.500000*%
%ADD21P,1.732040X8X22.500000*%
%ADD22C,1.600200*%
%ADD23C,0.254000*%
%ADD24C,1.500000*%
%ADD25C,1.300000*%
%ADD26C,0.609600*%
%ADD27C,0.406400*%


D10*
X156132Y17394D02*
X140892Y17394D01*
X140892Y62606D02*
X156132Y62606D01*
X91108Y17394D02*
X75868Y17394D01*
X75868Y62606D02*
X91108Y62606D01*
X286892Y17394D02*
X302132Y17394D01*
X302132Y62606D02*
X286892Y62606D01*
X237108Y17394D02*
X221868Y17394D01*
X221868Y62606D02*
X237108Y62606D01*
X432892Y17394D02*
X448132Y17394D01*
X448132Y62606D02*
X432892Y62606D01*
X383108Y17394D02*
X367868Y17394D01*
X367868Y62606D02*
X383108Y62606D01*
X578892Y17394D02*
X594132Y17394D01*
X594132Y62606D02*
X578892Y62606D01*
X529108Y17394D02*
X513868Y17394D01*
X513868Y62606D02*
X529108Y62606D01*
D11*
X222300Y570000D03*
X247700Y570000D03*
X287300Y570000D03*
X312700Y570000D03*
X357300Y570000D03*
X382700Y570000D03*
X427300Y570000D03*
X452700Y570000D03*
D10*
X14500Y497620D02*
X14500Y482380D01*
X39900Y482380D02*
X39900Y497620D01*
X65300Y497620D02*
X65300Y482380D01*
X90700Y482380D02*
X90700Y497620D01*
X116100Y497620D02*
X116100Y482380D01*
X141500Y482380D02*
X141500Y497620D01*
X166900Y497620D02*
X166900Y482380D01*
X192300Y482380D02*
X192300Y497620D01*
X217700Y497620D02*
X217700Y482380D01*
X243100Y482380D02*
X243100Y497620D01*
X268500Y497620D02*
X268500Y482380D01*
X293900Y482380D02*
X293900Y497620D01*
X319300Y497620D02*
X319300Y482380D01*
X344700Y482380D02*
X344700Y497620D01*
X370100Y497620D02*
X370100Y482380D01*
X395500Y482380D02*
X395500Y497620D01*
D12*
X501900Y530000D03*
X578100Y530000D03*
D13*
X349250Y378704D02*
X349250Y365496D01*
X323850Y365496D02*
X323850Y378704D01*
X196850Y378704D02*
X196850Y365496D01*
X196850Y302504D02*
X196850Y289296D01*
X298450Y365496D02*
X298450Y378704D01*
X273050Y378704D02*
X273050Y365496D01*
X222250Y365496D02*
X222250Y378704D01*
X247650Y378704D02*
X247650Y365496D01*
X222250Y302504D02*
X222250Y289296D01*
X247650Y289296D02*
X247650Y302504D01*
X273050Y302504D02*
X273050Y289296D01*
X298450Y289296D02*
X298450Y302504D01*
X323850Y302504D02*
X323850Y289296D01*
X349250Y289296D02*
X349250Y302504D01*
D14*
X419100Y245100D03*
X400050Y232400D03*
X419100Y219700D03*
X368300Y245100D03*
X349250Y232400D03*
X368300Y219700D03*
D15*
X79200Y595400D03*
X79200Y544600D03*
X180800Y570000D03*
D16*
X425450Y448300D03*
X438150Y429250D03*
X450850Y448300D03*
D13*
X552196Y435600D02*
X565404Y435600D01*
X489204Y435600D02*
X475996Y435600D01*
D17*
X609600Y461000D03*
X609600Y435600D03*
X609600Y410200D03*
X609600Y384800D03*
X609600Y359400D03*
X609600Y334000D03*
X584200Y461000D03*
X584200Y435600D03*
X584200Y410200D03*
X584200Y384800D03*
X584200Y359400D03*
X584200Y334000D03*
X609600Y295900D03*
X609600Y270500D03*
X609600Y245100D03*
X609600Y219700D03*
X609600Y194300D03*
X609600Y168900D03*
X584200Y295900D03*
X584200Y270500D03*
X584200Y245100D03*
X584200Y219700D03*
X584200Y194300D03*
X584200Y168900D03*
D11*
X428650Y488600D03*
X454050Y488600D03*
D14*
X406400Y403850D03*
X406400Y429250D03*
D18*
X558800Y403850D03*
X558800Y378450D03*
D16*
X558800Y168900D03*
X533400Y168900D03*
D18*
X527050Y403850D03*
X527050Y378450D03*
D16*
X558800Y200650D03*
X533400Y200650D03*
D14*
X481000Y27300D03*
X481000Y52700D03*
X335000Y27300D03*
X335000Y52700D03*
X189000Y27300D03*
X189000Y52700D03*
X40000Y27300D03*
X40000Y52700D03*
D16*
X361950Y448300D03*
X374650Y429250D03*
X387350Y448300D03*
D14*
X342900Y403850D03*
X342900Y429250D03*
D19*
X393700Y372100D03*
X393700Y295900D03*
D20*
X552450Y232400D03*
X552450Y308600D03*
D11*
X361950Y162550D03*
X412750Y162550D03*
D21*
X481330Y403850D03*
D22*
X445770Y403850D03*
D11*
X202300Y530000D03*
X227700Y530000D03*
X267300Y530000D03*
X292700Y530000D03*
X337300Y530000D03*
X362700Y530000D03*
X407300Y530000D03*
X432700Y530000D03*
D14*
X317500Y245100D03*
X298450Y232400D03*
X317500Y219700D03*
D11*
X342900Y194300D03*
X368300Y194300D03*
X196850Y251450D03*
X222250Y251450D03*
D14*
X266700Y245100D03*
X247650Y232400D03*
X266700Y219700D03*
D11*
X292100Y194300D03*
X317500Y194300D03*
D14*
X311150Y403850D03*
X311150Y429250D03*
D23*
X584200Y143500D02*
X584200Y92700D01*
X584200Y143500D02*
X596900Y156200D01*
X596900Y473700D01*
D24*
X596900Y473700D03*
X584200Y92700D03*
D25*
X289997Y414160D03*
D26*
X40490Y414160D01*
D25*
X40490Y414160D03*
D24*
X514350Y187950D03*
D27*
X419100Y187950D01*
D24*
X419100Y187950D03*
X381000Y207000D03*
D27*
X514350Y207000D01*
D24*
X514350Y207000D03*
M02*
