G04 EAGLE Gerber RS-274X export*
G75*
%MOMM*%
%FSLAX34Y34*%
%LPD*%
%INSoldermask Bottom*%
%IPPOS*%
%AMOC8*
5,1,8,0,0,1.08239X$1,22.5*%
G01*
%ADD10C,2.953200*%
%ADD11R,1.103200X2.753200*%
%ADD12C,1.727200*%
%ADD13C,1.524000*%
%ADD14P,2.969212X8X202.500000*%
%ADD15P,1.649562X8X112.500000*%
%ADD16P,2.584314X8X292.500000*%
%ADD17P,1.649562X8X22.500000*%
%ADD18P,1.869504X8X292.500000*%
%ADD19P,1.649562X8X202.500000*%
%ADD20P,1.759533X8X292.500000*%
%ADD21P,1.759533X8X112.500000*%
%ADD22P,1.951982X8X202.500000*%
%ADD23C,1.803400*%
%ADD24C,1.703200*%


D10*
X-615000Y605000D03*
X-615000Y115000D03*
X-35000Y605000D03*
X-35000Y115000D03*
D11*
X-566300Y91250D03*
X-566300Y138750D03*
X-540900Y91250D03*
X-540900Y138750D03*
X-515500Y91250D03*
X-515500Y138750D03*
X-490100Y91250D03*
X-490100Y138750D03*
X-464700Y91250D03*
X-464700Y138750D03*
X-439300Y91250D03*
X-439300Y138750D03*
X-413900Y91250D03*
X-413900Y138750D03*
X-388500Y91250D03*
X-388500Y138750D03*
X-363100Y91250D03*
X-363100Y138750D03*
X-337700Y91250D03*
X-337700Y138750D03*
X-312300Y91250D03*
X-312300Y138750D03*
X-286900Y91250D03*
X-286900Y138750D03*
X-261500Y91250D03*
X-261500Y138750D03*
X-236100Y91250D03*
X-236100Y138750D03*
X-210700Y91250D03*
X-210700Y138750D03*
X-185300Y91250D03*
X-185300Y138750D03*
X-159900Y91250D03*
X-159900Y138750D03*
X-134500Y91250D03*
X-134500Y138750D03*
X-109100Y91250D03*
X-109100Y138750D03*
X-83700Y91250D03*
X-83700Y138750D03*
D12*
X-140892Y17394D02*
X-156132Y17394D01*
X-156132Y62606D02*
X-140892Y62606D01*
X-91108Y17394D02*
X-75868Y17394D01*
X-75868Y62606D02*
X-91108Y62606D01*
X-286892Y17394D02*
X-302132Y17394D01*
X-302132Y62606D02*
X-286892Y62606D01*
X-237108Y17394D02*
X-221868Y17394D01*
X-221868Y62606D02*
X-237108Y62606D01*
X-432892Y17394D02*
X-448132Y17394D01*
X-448132Y62606D02*
X-432892Y62606D01*
X-383108Y17394D02*
X-367868Y17394D01*
X-367868Y62606D02*
X-383108Y62606D01*
X-578892Y17394D02*
X-594132Y17394D01*
X-594132Y62606D02*
X-578892Y62606D01*
X-529108Y17394D02*
X-513868Y17394D01*
X-513868Y62606D02*
X-529108Y62606D01*
D13*
X-222300Y563396D02*
X-222300Y576604D01*
X-247700Y576604D02*
X-247700Y563396D01*
X-287300Y563396D02*
X-287300Y576604D01*
X-312700Y576604D02*
X-312700Y563396D01*
X-357300Y563396D02*
X-357300Y576604D01*
X-382700Y576604D02*
X-382700Y563396D01*
X-427300Y563396D02*
X-427300Y576604D01*
X-452700Y576604D02*
X-452700Y563396D01*
D12*
X-14500Y497620D02*
X-14500Y482380D01*
X-39900Y482380D02*
X-39900Y497620D01*
X-65300Y497620D02*
X-65300Y482380D01*
X-90700Y482380D02*
X-90700Y497620D01*
X-116100Y497620D02*
X-116100Y482380D01*
X-141500Y482380D02*
X-141500Y497620D01*
X-166900Y497620D02*
X-166900Y482380D01*
X-192300Y482380D02*
X-192300Y497620D01*
X-217700Y497620D02*
X-217700Y482380D01*
X-243100Y482380D02*
X-243100Y497620D01*
X-268500Y497620D02*
X-268500Y482380D01*
X-293900Y482380D02*
X-293900Y497620D01*
X-319300Y497620D02*
X-319300Y482380D01*
X-344700Y482380D02*
X-344700Y497620D01*
X-370100Y497620D02*
X-370100Y482380D01*
X-395500Y482380D02*
X-395500Y497620D01*
D14*
X-501900Y530000D03*
X-578100Y530000D03*
D13*
X-349250Y378704D02*
X-349250Y365496D01*
X-323850Y365496D02*
X-323850Y378704D01*
X-196850Y378704D02*
X-196850Y365496D01*
X-196850Y302504D02*
X-196850Y289296D01*
X-298450Y365496D02*
X-298450Y378704D01*
X-273050Y378704D02*
X-273050Y365496D01*
X-222250Y365496D02*
X-222250Y378704D01*
X-247650Y378704D02*
X-247650Y365496D01*
X-222250Y302504D02*
X-222250Y289296D01*
X-247650Y289296D02*
X-247650Y302504D01*
X-273050Y302504D02*
X-273050Y289296D01*
X-298450Y289296D02*
X-298450Y302504D01*
X-323850Y302504D02*
X-323850Y289296D01*
X-349250Y289296D02*
X-349250Y302504D01*
D15*
X-419100Y245100D03*
X-400050Y232400D03*
X-419100Y219700D03*
X-368300Y245100D03*
X-349250Y232400D03*
X-368300Y219700D03*
D16*
X-79200Y595400D03*
X-79200Y544600D03*
X-180800Y570000D03*
D17*
X-438150Y457200D03*
X-450850Y438150D03*
X-463550Y457200D03*
D13*
X-558546Y435600D02*
X-571754Y435600D01*
X-495554Y435600D02*
X-482346Y435600D01*
D18*
X-609600Y461000D03*
X-609600Y435600D03*
X-609600Y410200D03*
X-609600Y384800D03*
X-609600Y359400D03*
X-609600Y334000D03*
X-584200Y461000D03*
X-584200Y435600D03*
X-584200Y410200D03*
X-584200Y384800D03*
X-584200Y359400D03*
X-584200Y334000D03*
X-609600Y295900D03*
X-609600Y270500D03*
X-609600Y245100D03*
X-609600Y219700D03*
X-609600Y194300D03*
X-609600Y168900D03*
X-584200Y295900D03*
X-584200Y270500D03*
X-584200Y245100D03*
X-584200Y219700D03*
X-584200Y194300D03*
X-584200Y168900D03*
D19*
X-437850Y488400D03*
X-463250Y488400D03*
D15*
X-431800Y406400D03*
X-431800Y431800D03*
X-558800Y381000D03*
X-558800Y406400D03*
D19*
X-539750Y171450D03*
X-565150Y171450D03*
D15*
X-527050Y381000D03*
X-527050Y406400D03*
D19*
X-539750Y203200D03*
X-565150Y203200D03*
D15*
X-481000Y27300D03*
X-481000Y52700D03*
X-335000Y27300D03*
X-335000Y52700D03*
X-189000Y27300D03*
X-189000Y52700D03*
X-40000Y27300D03*
X-40000Y52700D03*
D17*
X-368300Y457200D03*
X-381000Y438150D03*
X-393700Y457200D03*
D15*
X-361950Y406400D03*
X-361950Y431800D03*
D20*
X-393700Y372100D03*
X-393700Y295900D03*
D21*
X-552450Y232400D03*
X-552450Y308600D03*
D19*
X-361950Y162550D03*
X-412750Y162550D03*
X-202300Y530000D03*
X-227700Y530000D03*
X-267300Y530000D03*
X-292700Y530000D03*
X-337300Y530000D03*
X-362700Y530000D03*
X-407300Y530000D03*
X-432700Y530000D03*
D15*
X-317500Y245100D03*
X-298450Y232400D03*
X-317500Y219700D03*
D19*
X-342900Y194300D03*
X-368300Y194300D03*
X-196850Y251450D03*
X-222250Y251450D03*
D15*
X-266700Y245100D03*
X-247650Y232400D03*
X-266700Y219700D03*
D19*
X-292100Y194300D03*
X-317500Y194300D03*
D15*
X-330200Y406400D03*
X-330200Y431800D03*
D19*
X-241300Y194300D03*
X-266700Y194300D03*
D15*
X-400050Y406400D03*
X-400050Y431800D03*
D22*
X-495300Y406400D03*
D23*
X-469900Y406400D03*
D24*
X-596900Y473700D03*
X-584200Y92700D03*
X-44450Y450850D03*
X-349250Y450850D03*
X-514350Y208040D03*
X-431800Y208040D03*
X-514350Y190500D03*
X-393700Y190500D03*
M02*
