M48
;GenerationSoftware,Autodesk,EAGLE,9.6.2*%
;CreationDate,2022-12-09T07:01:39Z*%
FMAT,2
ICI,OFF
METRIC,TZ,000.000
T5C0.800
T4C0.813
T3C0.914
T2C1.016
T1C2.750
%
G90
M71
T1
X-61500Y60500
X-61500Y11500
X-3500Y60500
X-3500Y11500
T2
X-44051Y1739
X-58420Y38480
X-58420Y35940
X-58420Y33400
X-60960Y29590
X-60960Y27050
X-60960Y24510
X-60960Y21970
X-14851Y1739
X-14851Y6261
X-8349Y1739
X-8349Y6261
X-29451Y1739
X-29451Y6261
X-22949Y1739
X-22949Y6261
X-11610Y49000
X-44051Y6261
X-37549Y1739
X-37549Y6261
X-58651Y1739
X-58651Y6261
X-52149Y1739
X-52149Y6261
X-60960Y19430
X-60960Y16890
X-7920Y59540
X-7920Y54460
X-18080Y57000
X-58420Y29590
X-58420Y27050
X-58420Y21970
X-1450Y49000
X-3990Y49000
X-6530Y49000
X-9070Y49000
X-58420Y19430
X-14150Y49000
X-16690Y49000
X-19230Y49000
X-21770Y49000
X-24310Y49000
X-26850Y49000
X-29390Y49000
X-31930Y49000
X-34470Y49000
X-37010Y49000
X-39550Y49000
X-50190Y53000
X-57810Y53000
X-58420Y16890
X-58420Y24510
X-60960Y43560
X-60960Y41020
X-60960Y38480
X-60960Y35940
X-60960Y33400
X-58420Y46100
X-60960Y46100
X-58420Y43560
X-58420Y41020
T3
X-39370Y37210
X-55245Y30860
X-55245Y23240
X-39370Y29590
T4
X-38270Y57000
X-40005Y40640
X-40005Y43180
X-49530Y40640
X-46990Y40640
X-22230Y57000
X-24770Y57000
X-28730Y57000
X-31270Y57000
X-35730Y57000
X-24765Y29590
X-42730Y57000
X-45270Y57000
X-34925Y37210
X-32385Y37210
X-19685Y37210
X-19685Y29590
X-29845Y37210
X-27305Y37210
X-22225Y37210
X-24765Y37210
X-27305Y29590
X-29845Y29590
X-32385Y29590
X-34925Y29590
X-41910Y24510
X-40005Y23240
X-41910Y21970
X-36830Y24510
X-34925Y23240
X-36830Y21970
X-43815Y45720
X-45085Y43815
X-46355Y45720
X-56515Y43560
X-48895Y43560
X-22225Y29590
X-43785Y48840
X-46325Y48840
X-43180Y40640
X-43180Y43180
X-55880Y38100
X-55880Y40640
X-53975Y17145
X-56515Y17145
X-52705Y38100
X-52705Y40640
X-53975Y20320
X-56515Y20320
X-48100Y2730
X-48100Y5270
X-33500Y2730
X-33500Y5270
X-18900Y2730
X-18900Y5270
X-4000Y2730
X-4000Y5270
X-36830Y45720
X-38100Y43815
X-39370Y45720
X-36195Y40640
X-36195Y43180
X-36195Y16255
X-41275Y16255
X-20230Y53000
X-22770Y53000
X-26730Y53000
X-29270Y53000
X-33730Y53000
X-36270Y53000
X-40730Y53000
X-43270Y53000
X-31750Y24510
X-29845Y23240
X-31750Y21970
X-34290Y19430
X-36830Y19430
X-19685Y25145
X-22225Y25145
X-26670Y24510
X-24765Y23240
X-26670Y21970
X-29210Y19430
X-31750Y19430
X-33020Y40640
X-33020Y43180
X-24130Y19430
X-26670Y19430
T5
X-4445Y45085
X-34925Y45085
X-51435Y20804
X-43180Y20804
X-39370Y19050
X-51435Y19050
X-58420Y9270
X-59690Y47370
M30